<?xml version="1.0" encoding="UTF-8"?>
<svg id="_レイヤー_1" data-name="レイヤー 1" xmlns="http://www.w3.org/2000/svg" width="1024" height="1024" version="1.1" viewBox="0 0 1024 1024">
  <defs>
    <style>
      .cls-1 {
        fill: #fff;
        stroke-width: 0px;
      }
    </style>
  </defs>
  <path class="cls-1" d="M464.3,154c-30.9,48.2-47.3,104-47.3,161.6,0,165.2,134.4,299.7,299.7,299.7s106.3-14.3,152.2-41.5c-14.5,81.8-57.5,156.6-121.2,210.8-31.9,27.1-67.8,48.3-106.8,62.9-40.4,15.1-82.9,22.8-126.4,22.8s-95.7-9.5-140.1-28.3c-42.9-18.1-81.3-44.1-114.4-77.1-33.1-33.1-59-71.5-77.1-114.4-18.8-44.4-28.3-91.5-28.3-140.1s8.1-88.1,24-129.4c15.4-39.8,37.5-76.4,65.9-108.5,57-64.6,134.9-106.6,219.7-118.5M466.3,152.7c-176.5,23.6-312.6,174.7-312.6,357.7s161.6,360.9,360.9,360.9,326.6-129.4,355.7-299.5c-44.9,27-97.4,42.5-153.6,42.5-164.9,0-298.7-133.7-298.7-298.7s17.8-116,48.3-162.9h0Z"/>
</svg>